<mxfile host="65bd71144e">
    <diagram id="WOnEaEY9Qyw4i00NLAq2" name="ページ1">
        <mxGraphModel dx="1198" dy="899" grid="1" gridSize="10" guides="1" tooltips="1" connect="1" arrows="1" fold="1" page="1" pageScale="1" pageWidth="827" pageHeight="1169" math="0" shadow="0">
            <root>
                <mxCell id="0"/>
                <mxCell id="1" parent="0"/>
                <mxCell id="2" value="" style="rounded=1;whiteSpace=wrap;html=1;arcSize=6;movable=0;resizable=0;rotatable=0;deletable=0;editable=0;connectable=0;" vertex="1" parent="1">
                    <mxGeometry x="80" y="150" width="340" height="380" as="geometry"/>
                </mxCell>
                <mxCell id="3" value="前進" style="rounded=1;whiteSpace=wrap;html=1;" vertex="1" parent="1">
                    <mxGeometry x="190" y="320" width="80" height="40" as="geometry"/>
                </mxCell>
                <mxCell id="4" value="止まる" style="rounded=1;whiteSpace=wrap;html=1;" vertex="1" parent="1">
                    <mxGeometry x="320" y="320" width="80" height="40" as="geometry"/>
                </mxCell>
                <mxCell id="5" value="左折" style="rounded=1;whiteSpace=wrap;html=1;" vertex="1" parent="1">
                    <mxGeometry x="190" y="450" width="80" height="40" as="geometry"/>
                </mxCell>
                <mxCell id="6" value="右折" style="rounded=1;whiteSpace=wrap;html=1;" vertex="1" parent="1">
                    <mxGeometry x="320" y="450" width="80" height="40" as="geometry"/>
                </mxCell>
                <mxCell id="7" value="" style="endArrow=none;html=1;exitX=0.006;exitY=0.221;exitDx=0;exitDy=0;exitPerimeter=0;" edge="1" parent="1" source="2">
                    <mxGeometry width="50" height="50" relative="1" as="geometry">
                        <mxPoint x="230" y="220" as="sourcePoint"/>
                        <mxPoint x="420" y="234" as="targetPoint"/>
                    </mxGeometry>
                </mxCell>
                <mxCell id="9" value="動く" style="text;html=1;strokeColor=none;fillColor=none;align=center;verticalAlign=middle;whiteSpace=wrap;rounded=0;" vertex="1" parent="1">
                    <mxGeometry x="210" y="180" width="60" height="30" as="geometry"/>
                </mxCell>
                <mxCell id="10" value="" style="ellipse;html=1;shape=startState;fillColor=#000000;strokeColor=#ff0000;" vertex="1" parent="1">
                    <mxGeometry x="90" y="325" width="30" height="30" as="geometry"/>
                </mxCell>
                <mxCell id="11" value="" style="edgeStyle=orthogonalEdgeStyle;html=1;verticalAlign=bottom;endArrow=open;endSize=8;strokeColor=#ff0000;entryX=0;entryY=0.5;entryDx=0;entryDy=0;" edge="1" source="10" parent="1" target="3">
                    <mxGeometry relative="1" as="geometry">
                        <mxPoint x="105" y="410" as="targetPoint"/>
                    </mxGeometry>
                </mxCell>
                <mxCell id="13" value="" style="html=1;verticalAlign=bottom;endArrow=block;startArrow=block;startFill=1;exitX=1;exitY=0.5;exitDx=0;exitDy=0;entryX=0;entryY=0.5;entryDx=0;entryDy=0;" edge="1" parent="1" source="3" target="4">
                    <mxGeometry width="80" relative="1" as="geometry">
                        <mxPoint x="280" y="400" as="sourcePoint"/>
                        <mxPoint x="360" y="400" as="targetPoint"/>
                    </mxGeometry>
                </mxCell>
                <mxCell id="14" value="" style="html=1;verticalAlign=bottom;endArrow=block;startArrow=block;startFill=1;exitX=0.5;exitY=0;exitDx=0;exitDy=0;entryX=0.5;entryY=1;entryDx=0;entryDy=0;" edge="1" parent="1" source="5" target="4">
                    <mxGeometry width="80" relative="1" as="geometry">
                        <mxPoint x="280" y="350" as="sourcePoint"/>
                        <mxPoint x="330" y="350" as="targetPoint"/>
                    </mxGeometry>
                </mxCell>
                <mxCell id="15" value="" style="html=1;verticalAlign=bottom;endArrow=block;startArrow=block;startFill=1;exitX=0.5;exitY=1;exitDx=0;exitDy=0;entryX=0.5;entryY=0;entryDx=0;entryDy=0;" edge="1" parent="1" source="4" target="6">
                    <mxGeometry width="80" relative="1" as="geometry">
                        <mxPoint x="290" y="360" as="sourcePoint"/>
                        <mxPoint x="340" y="360" as="targetPoint"/>
                    </mxGeometry>
                </mxCell>
            </root>
        </mxGraphModel>
    </diagram>
</mxfile>